External Loads File
version=1
nRows=46
nColumns=13
Range=5.000000e-03-10 seconds
endheader
time 	forceRightX 	forceRightY 	forceRightZ 	pointRightX 	pointRightY 	pointRightZ 	forceLeftX 	forceLeftY 	forceLeftZ 	pointLeftX 	pointLeftY 	pointLeftZ 		
7.505000 -38.061212 -42.506188 -0.000000 0.053874 0.280403 -0.100419 -182.162121 252.393125 -0.000000 0.333236 0.342001 -0.348499
7.510000 -38.859512 -40.145517 -0.000000 0.053567 0.290548 -0.100381 -186.913670 287.674079 -0.000000 0.332423 0.331046 -0.348423
7.515000 -38.181941 -35.984145 -0.000000 0.053792 0.300732 -0.100482 -190.149030 324.326669 -0.000000 0.331178 0.319934 -0.348965
7.520000 -35.987063 -30.252537 -0.000000 0.054563 0.311099 -0.100565 -191.765347 361.792998 -0.000000 0.329593 0.308986 -0.349241
7.525000 -32.304771 -23.219752 -0.000000 0.055948 0.321496 -0.100624 -191.405533 399.721439 -0.000000 0.327255 0.298028 -0.349258
7.530000 -27.206028 -15.223777 -0.000000 0.057788 0.331898 -0.100768 -189.049663 437.648747 -0.000000 0.324564 0.287265 -0.349219
7.535000 -20.847957 -6.557531 -0.000000 0.060322 0.342333 -0.100922 -183.917806 475.474676 -0.000000 0.321402 0.276498 -0.349195
7.540000 -13.375303 2.426417 -0.000000 0.063399 0.352672 -0.101046 -176.345133 512.612311 -0.000000 0.317732 0.266061 -0.349075
7.545000 -4.956465 11.443978 -0.000000 0.067063 0.362958 -0.101238 -165.637254 548.854001 -0.000000 0.313495 0.255840 -0.348942
7.550000 4.237922 20.194071 -0.000000 0.071307 0.373050 -0.101335 -151.660608 583.730414 -0.000000 0.308628 0.245836 -0.348873
7.555000 13.942642 28.361427 -0.000000 0.075947 0.382896 -0.101448 -134.968356 616.642515 -0.000000 0.303280 0.236228 -0.348594
7.560000 23.801756 35.572800 -0.000000 0.081154 0.392588 -0.101591 -115.266452 647.357169 -0.000000 0.297472 0.226986 -0.348374
7.565000 33.313758 41.425086 -0.000000 0.086800 0.402115 -0.101821 -92.785334 675.670815 -0.000000 0.291233 0.218038 -0.348146
7.570000 41.857908 45.583458 -0.000000 0.092911 0.411418 -0.101982 -68.108728 701.475137 -0.000000 0.284528 0.209560 -0.347926
7.575000 48.768035 47.888344 -0.000000 0.099309 0.420496 -0.102122 -42.033863 724.767347 -0.000000 0.277504 0.201548 -0.347700
7.580000 53.570784 48.317205 -0.000000 0.106438 0.429362 -0.102188 -13.542566 745.675155 -0.000000 0.270067 0.193834 -0.347460
7.585000 55.757050 47.443601 -0.000000 0.113332 0.437912 -0.102427 14.535230 764.178518 -0.000000 0.262243 0.186707 -0.347177
7.590000 55.484731 45.793751 -0.000000 0.121117 0.446147 -0.102590 44.285294 780.340542 -0.000000 0.254080 0.180057 -0.346889
7.595000 53.026431 44.355343 -0.000000 0.128998 0.453872 -0.102888 73.534457 794.246446 -0.000000 0.245598 0.173842 -0.346590
7.600000 48.973442 43.984209 -0.000000 0.136551 0.461049 -0.103463 100.734463 806.112014 -0.000000 0.236800 0.168273 -0.346367
7.605000 44.186746 45.042307 -0.000000 0.144951 0.467513 -0.103654 128.117844 815.629011 -0.000000 0.227801 0.163200 -0.346066
7.610000 39.183398 47.823605 -0.000000 0.153518 0.473218 -0.103977 153.837005 822.857781 -0.000000 0.218593 0.158800 -0.345887
7.615000 34.359030 52.181662 -0.000000 0.162333 0.478106 -0.104161 177.989840 827.562420 -0.000000 0.209210 0.154855 -0.345719
7.620000 29.812615 57.747985 -0.000000 0.171292 0.482336 -0.104415 199.886938 829.595221 -0.000000 0.199760 0.151714 -0.345657
7.625000 25.504913 63.970896 -0.000000 0.180370 0.486034 -0.104563 219.741604 828.558485 -0.000000 0.190179 0.148862 -0.345608
7.630000 21.266511 70.291558 -0.000000 0.189724 0.488860 -0.104712 237.468232 824.046672 -0.000000 0.180561 0.146899 -0.345561
7.635000 16.785901 76.243225 -0.000000 0.198939 0.491141 -0.104939 251.917282 815.935949 -0.000000 0.171020 0.145432 -0.345662
7.640000 11.967027 81.432640 -0.000000 0.208440 0.492826 -0.105149 264.252632 803.412049 -0.000000 0.161473 0.144570 -0.345886
7.645000 6.534844 85.681544 -0.000000 0.217653 0.493597 -0.105353 273.044115 786.487576 -0.000000 0.152060 0.144425 -0.345834
7.650000 0.535558 88.927525 -0.000000 0.226890 0.493659 -0.105490 278.961547 764.577020 -0.000000 0.142833 0.145031 -0.345885
7.655000 -5.925113 91.225580 -0.000000 0.235932 0.493079 -0.105636 281.825955 737.487254 -0.000000 0.133833 0.146846 -0.346072
7.660000 -12.726071 92.672289 -0.000000 0.244690 0.491875 -0.105761 280.858021 705.437986 -0.000000 0.125164 0.148620 -0.346303
7.665000 -19.376593 93.451116 -0.000000 0.253497 0.489930 -0.105947 277.863680 667.823409 -0.000000 0.116602 0.151311 -0.346321
7.670000 -25.988434 93.679042 -0.000000 0.261550 0.487319 -0.106008 270.289424 626.016850 -0.000000 0.108511 0.153904 -0.346410
7.675000 -32.046800 93.615345 -0.000000 0.269454 0.484123 -0.106146 260.604354 579.527618 -0.000000 0.100788 0.157805 -0.346300
7.680000 -37.515157 93.439012 -0.000000 0.277080 0.480078 -0.106392 248.605654 529.185261 -0.000000 0.093435 0.162324 -0.345986
7.685000 -42.479981 93.301904 -0.000000 0.284408 0.475443 -0.106429 234.133517 476.095600 -0.000000 0.086724 0.167618 -0.345966
7.690000 -47.079317 93.379943 -0.000000 0.291099 0.470146 -0.106397 217.259953 421.554111 -0.000000 0.080462 0.173158 -0.345854
7.695000 -51.330124 93.982838 -0.000000 0.297236 0.464263 -0.106336 198.834275 366.688404 -0.000000 0.074755 0.179396 -0.345631
7.700000 -55.206431 95.530829 -0.000000 0.303241 0.457414 -0.105927 179.817842 312.649399 -0.000000 0.069616 0.186027 -0.345365
7.705000 -58.921301 98.361988 -0.000000 0.308716 0.449878 -0.105681 160.342947 261.005521 -0.000000 0.064992 0.192982 -0.345185
7.710000 -62.569450 102.868479 -0.000000 0.313652 0.441763 -0.105414 141.006356 212.860026 -0.000000 0.060855 0.200320 -0.345022
7.715000 -66.329634 109.306990 -0.000000 0.318188 0.433650 -0.105174 122.132370 169.190136 -0.000000 0.057173 0.207954 -0.344957
7.720000 -70.127796 117.962075 -0.000000 0.322176 0.424845 -0.105009 104.481833 130.487347 -0.000000 0.054000 0.215916 -0.344764
7.725000 -73.964096 128.938436 -0.000000 0.325585 0.415156 -0.104752 88.601324 97.250348 -0.000000 0.051185 0.223870 -0.344648
7.730000 -77.889774 142.162925 -0.000000 0.328318 0.405458 -0.104312 74.986854 69.686975 -0.000000 0.048687 0.232364 -0.344590
